<svg id="visual" viewBox="0 0 900 600" width="900" height="600" xmlns="http://www.w3.org/2000/svg" xmlns:xlink="http://www.w3.org/1999/xlink" version="1.1"><rect x="0" y="0" width="900" height="600" fill="#ffffff"></rect><defs><linearGradient id="grad1_0" x1="33.3%" y1="0%" x2="100%" y2="100%"><stop offset="20%" stop-color="#ffffff" stop-opacity="1"></stop><stop offset="80%" stop-color="#ffffff" stop-opacity="1"></stop></linearGradient></defs><defs><linearGradient id="grad2_0" x1="0%" y1="0%" x2="66.7%" y2="100%"><stop offset="20%" stop-color="#ffffff" stop-opacity="1"></stop><stop offset="80%" stop-color="#ffffff" stop-opacity="1"></stop></linearGradient></defs><g transform="translate(900, 0)"><path d="M0 216.3C-19.9 205.4 -39.8 194.5 -61.5 189.3C-83.2 184 -106.7 184.5 -127.2 175C-147.6 165.6 -165.1 146.2 -171.5 124.6C-177.9 103 -173.2 79.2 -178.8 58.1C-184.4 37 -200.4 18.5 -216.3 0L0 0Z" fill="#47fa3c"></path></g><g transform="translate(0, 600)"><path d="M0 -216.3C18.8 -201.5 37.7 -186.7 58.7 -180.7C79.7 -174.7 102.9 -177.7 124 -170.7C145.1 -163.7 164.2 -146.9 175 -127.2C185.9 -107.4 188.5 -84.7 194 -63C199.5 -41.4 207.9 -20.7 216.3 0L0 0Z" fill="#47fa3c"></path></g></svg>