<svg id="visual" viewBox="0 0 900 600" width="900" height="600" xmlns="http://www.w3.org/2000/svg" xmlns:xlink="http://www.w3.org/1999/xlink" version="1.1"><rect x="0" y="0" width="900" height="600" fill="#FFFFFF"></rect><path d="M0 177L30 174.7C60 172.3 120 167.7 180 154C240 140.3 300 117.7 360 116.2C420 114.7 480 134.3 540 147.5C600 160.7 660 167.3 720 157.7C780 148 840 122 870 109L900 96L900 0L870 0C840 0 780 0 720 0C660 0 600 0 540 0C480 0 420 0 360 0C300 0 240 0 180 0C120 0 60 0 30 0L0 0Z" fill="#bfffbd" stroke-linecap="round" stroke-linejoin="miter"></path></svg>