<svg id="visual" viewBox="0 0 900 500" width="900" height="500" xmlns="http://www.w3.org/2000/svg" xmlns:xlink="http://www.w3.org/1999/xlink" version="1.1"><rect x="0" y="0" width="900" height="600" fill="#FFFFFF"></rect><path d="M0 86L21.5 81.3C43 76.7 86 67.3 128.8 71.2C171.7 75 214.3 92 257.2 98.5C300 105 343 101 385.8 105C428.7 109 471.3 121 514.2 114.8C557 108.7 600 84.3 642.8 82.8C685.7 81.3 728.3 102.7 771.2 101C814 99.3 857 74.7 878.5 62.3L900 50L900 0L878.5 0C857 0 814 0 771.2 0C728.3 0 685.7 0 642.8 0C600 0 557 0 514.2 0C471.3 0 428.7 0 385.8 0C343 0 300 0 257.2 0C214.3 0 171.7 0 128.8 0C86 0 43 0 21.5 0L0 0Z" fill="#bfffbd" stroke-linecap="round" stroke-linejoin="miter"></path></svg>