<svg id="visual" viewBox="0 0 900 600" width="900" height="600" xmlns="http://www.w3.org/2000/svg" xmlns:xlink="http://www.w3.org/1999/xlink" version="1.1"><rect x="0" y="0" width="900" height="600" fill="#FFFFFF"></rect><path d="M0 191L12.5 186.8C25 182.7 50 174.3 75 171C100 167.7 125 169.3 150 164.3C175 159.3 200 147.7 225 138.2C250 128.7 275 121.3 300 124.5C325 127.7 350 141.3 375 154C400 166.7 425 178.3 450 178.5C475 178.7 500 167.3 525 161.5C550 155.7 575 155.3 600 158.7C625 162 650 169 675 175.8C700 182.7 725 189.3 750 177.2C775 165 800 134 825 128.8C850 123.7 875 144.3 887.5 154.7L900 165L900 0L887.5 0C875 0 850 0 825 0C800 0 775 0 750 0C725 0 700 0 675 0C650 0 625 0 600 0C575 0 550 0 525 0C500 0 475 0 450 0C425 0 400 0 375 0C350 0 325 0 300 0C275 0 250 0 225 0C200 0 175 0 150 0C125 0 100 0 75 0C50 0 25 0 12.5 0L0 0Z" fill="#bfffbd" stroke-linecap="round" stroke-linejoin="miter"></path></svg>