<svg id="visual" viewBox="0 0 900 600" width="900" height="600" xmlns="http://www.w3.org/2000/svg" xmlns:xlink="http://www.w3.org/1999/xlink" version="1.1"><rect x="0" y="0" width="900" height="600" fill="#ffffff"></rect><path d="M0 129L18.8 126.7C37.7 124.3 75.3 119.7 112.8 111.5C150.3 103.3 187.7 91.7 225.2 88.5C262.7 85.3 300.3 90.7 337.8 98C375.3 105.3 412.7 114.7 450.2 117.7C487.7 120.7 525.3 117.3 562.8 110.2C600.3 103 637.7 92 675.2 81.2C712.7 70.3 750.3 59.7 787.8 64.8C825.3 70 862.7 91 881.3 101.5L900 112L900 0L881.3 0C862.7 0 825.3 0 787.8 0C750.3 0 712.7 0 675.2 0C637.7 0 600.3 0 562.8 0C525.3 0 487.7 0 450.2 0C412.7 0 375.3 0 337.8 0C300.3 0 262.7 0 225.2 0C187.7 0 150.3 0 112.8 0C75.3 0 37.7 0 18.8 0L0 0Z" fill="#b4ffa4" stroke-linecap="round" stroke-linejoin="miter"></path></svg>