<svg id="visual" viewBox="0 0 900 600" width="900" height="600" xmlns="http://www.w3.org/2000/svg" xmlns:xlink="http://www.w3.org/1999/xlink" version="1.1"><rect x="0" y="0" width="900" height="600" fill="#FFFFFF"></rect><path d="M0 165L25 161.3C50 157.7 100 150.3 150 134.5C200 118.7 250 94.3 300 95.5C350 96.7 400 123.3 450 141.3C500 159.3 550 168.7 600 167C650 165.3 700 152.7 750 151.8C800 151 850 162 875 167.5L900 173L900 0L875 0C850 0 800 0 750 0C700 0 650 0 600 0C550 0 500 0 450 0C400 0 350 0 300 0C250 0 200 0 150 0C100 0 50 0 25 0L0 0Z" fill="#bfffbd" stroke-linecap="round" stroke-linejoin="miter"></path></svg>